<mxfile host="app.diagrams.net" modified="2023-06-14T11:10:36.133Z" agent="Mozilla/5.0 (X11; Linux x86_64) AppleWebKit/537.36 (KHTML, like Gecko) Chrome/112.0.0.0 Safari/537.36" etag="WHeNkyGKu8niT9sS3DY7" version="21.3.8" type="device">
  <diagram id="C5RBs43oDa-KdzZeNtuy" name="Page-1">
    <mxGraphModel dx="813" dy="495" grid="1" gridSize="10" guides="1" tooltips="1" connect="1" arrows="1" fold="1" page="1" pageScale="1" pageWidth="827" pageHeight="1169" math="0" shadow="0">
      <root>
        <mxCell id="WIyWlLk6GJQsqaUBKTNV-0" />
        <mxCell id="WIyWlLk6GJQsqaUBKTNV-1" parent="WIyWlLk6GJQsqaUBKTNV-0" />
        <mxCell id="WIyWlLk6GJQsqaUBKTNV-2" value="" style="rounded=0;html=1;jettySize=auto;orthogonalLoop=1;fontSize=11;endArrow=block;endFill=0;endSize=8;strokeWidth=2;shadow=0;labelBackgroundColor=none;edgeStyle=orthogonalEdgeStyle;fillColor=#0050ef;strokeColor=#001DBC;" parent="WIyWlLk6GJQsqaUBKTNV-1" edge="1">
          <mxGeometry relative="1" as="geometry">
            <mxPoint x="190" y="343" as="sourcePoint" />
            <mxPoint x="190" y="393" as="targetPoint" />
            <Array as="points">
              <mxPoint x="190" y="353" />
              <mxPoint x="190" y="353" />
            </Array>
          </mxGeometry>
        </mxCell>
        <mxCell id="APD8Mw8oB8hHSOioJClh-17" style="edgeStyle=orthogonalEdgeStyle;rounded=0;orthogonalLoop=1;jettySize=auto;html=1;exitX=1;exitY=0.5;exitDx=0;exitDy=0;entryX=1;entryY=0.5;entryDx=0;entryDy=0;endArrow=block;endFill=0;fillColor=#a20025;strokeColor=#6F0000;strokeWidth=2;" parent="WIyWlLk6GJQsqaUBKTNV-1" source="APD8Mw8oB8hHSOioJClh-1" target="APD8Mw8oB8hHSOioJClh-8" edge="1">
          <mxGeometry relative="1" as="geometry">
            <Array as="points">
              <mxPoint x="390" y="413" />
              <mxPoint x="390" y="713" />
            </Array>
          </mxGeometry>
        </mxCell>
        <mxCell id="WIyWlLk6GJQsqaUBKTNV-3" value="Frontend" style="rounded=1;whiteSpace=wrap;html=1;fontSize=12;glass=0;strokeWidth=1;shadow=0;fillColor=#d5e8d4;strokeColor=#82b366;" parent="WIyWlLk6GJQsqaUBKTNV-1" vertex="1">
          <mxGeometry x="160" y="303" width="160" height="40" as="geometry" />
        </mxCell>
        <mxCell id="APD8Mw8oB8hHSOioJClh-1" value="Backend Service" style="rounded=1;whiteSpace=wrap;html=1;fontSize=12;glass=0;strokeWidth=1;shadow=0;fillColor=#fff2cc;strokeColor=#d6b656;" parent="WIyWlLk6GJQsqaUBKTNV-1" vertex="1">
          <mxGeometry x="160" y="393" width="160" height="40" as="geometry" />
        </mxCell>
        <mxCell id="APD8Mw8oB8hHSOioJClh-3" value="" style="rounded=0;html=1;jettySize=auto;orthogonalLoop=1;fontSize=11;endArrow=block;endFill=0;endSize=8;strokeWidth=2;shadow=0;labelBackgroundColor=none;edgeStyle=orthogonalEdgeStyle;entryX=0.188;entryY=0;entryDx=0;entryDy=0;entryPerimeter=0;fillColor=#0050ef;strokeColor=#001DBC;" parent="WIyWlLk6GJQsqaUBKTNV-1" target="APD8Mw8oB8hHSOioJClh-4" edge="1">
          <mxGeometry relative="1" as="geometry">
            <mxPoint x="189.54999999999998" y="433" as="sourcePoint" />
            <mxPoint x="154.97" y="503" as="targetPoint" />
            <Array as="points">
              <mxPoint x="190" y="473" />
            </Array>
          </mxGeometry>
        </mxCell>
        <mxCell id="APD8Mw8oB8hHSOioJClh-4" value="Redis Pub/Sub &amp;amp; Cache" style="rounded=1;whiteSpace=wrap;html=1;fontSize=12;glass=0;strokeWidth=1;shadow=0;fillColor=#f8cecc;strokeColor=#b85450;" parent="WIyWlLk6GJQsqaUBKTNV-1" vertex="1">
          <mxGeometry x="160" y="513" width="160" height="40" as="geometry" />
        </mxCell>
        <mxCell id="APD8Mw8oB8hHSOioJClh-5" value="" style="rounded=0;html=1;jettySize=auto;orthogonalLoop=1;fontSize=11;endArrow=block;endFill=0;endSize=8;strokeWidth=2;shadow=0;labelBackgroundColor=none;edgeStyle=orthogonalEdgeStyle;fillColor=#0050ef;strokeColor=#001DBC;" parent="WIyWlLk6GJQsqaUBKTNV-1" edge="1">
          <mxGeometry relative="1" as="geometry">
            <mxPoint x="190" y="553" as="sourcePoint" />
            <mxPoint x="190" y="603" as="targetPoint" />
            <Array as="points">
              <mxPoint x="190" y="563" />
              <mxPoint x="190" y="563" />
            </Array>
          </mxGeometry>
        </mxCell>
        <mxCell id="APD8Mw8oB8hHSOioJClh-6" value="Worker Server" style="rounded=1;whiteSpace=wrap;html=1;fontSize=12;glass=0;strokeWidth=1;shadow=0;fillColor=#ffe6cc;strokeColor=#d79b00;" parent="WIyWlLk6GJQsqaUBKTNV-1" vertex="1">
          <mxGeometry x="160" y="603" width="160" height="40" as="geometry" />
        </mxCell>
        <mxCell id="APD8Mw8oB8hHSOioJClh-7" value="" style="rounded=0;html=1;jettySize=auto;orthogonalLoop=1;fontSize=11;endArrow=block;endFill=0;endSize=8;strokeWidth=2;shadow=0;labelBackgroundColor=none;edgeStyle=orthogonalEdgeStyle;fillColor=#0050ef;strokeColor=#001DBC;" parent="WIyWlLk6GJQsqaUBKTNV-1" edge="1">
          <mxGeometry relative="1" as="geometry">
            <mxPoint x="190" y="643" as="sourcePoint" />
            <mxPoint x="190" y="693" as="targetPoint" />
            <Array as="points">
              <mxPoint x="190" y="653" />
              <mxPoint x="190" y="653" />
            </Array>
          </mxGeometry>
        </mxCell>
        <mxCell id="APD8Mw8oB8hHSOioJClh-8" value="MySQL Database" style="rounded=1;whiteSpace=wrap;html=1;fontSize=12;glass=0;strokeWidth=1;shadow=0;fillColor=#d0cee2;strokeColor=#56517e;" parent="WIyWlLk6GJQsqaUBKTNV-1" vertex="1">
          <mxGeometry x="160" y="693" width="160" height="40" as="geometry" />
        </mxCell>
        <mxCell id="APD8Mw8oB8hHSOioJClh-9" value="POST Data" style="text;html=1;strokeColor=none;fillColor=none;align=center;verticalAlign=middle;whiteSpace=wrap;rounded=0;" parent="WIyWlLk6GJQsqaUBKTNV-1" vertex="1">
          <mxGeometry x="130" y="348" width="60" height="30" as="geometry" />
        </mxCell>
        <mxCell id="APD8Mw8oB8hHSOioJClh-10" value="Publish and immediate success response to client" style="text;html=1;strokeColor=none;fillColor=none;align=center;verticalAlign=middle;whiteSpace=wrap;rounded=0;" parent="WIyWlLk6GJQsqaUBKTNV-1" vertex="1">
          <mxGeometry x="80" y="446.75" width="110" height="42.5" as="geometry" />
        </mxCell>
        <mxCell id="APD8Mw8oB8hHSOioJClh-11" value="Published data gets forwarded" style="text;html=1;strokeColor=none;fillColor=none;align=center;verticalAlign=middle;whiteSpace=wrap;rounded=0;" parent="WIyWlLk6GJQsqaUBKTNV-1" vertex="1">
          <mxGeometry x="80" y="563" width="100" height="30" as="geometry" />
        </mxCell>
        <mxCell id="APD8Mw8oB8hHSOioJClh-12" value="Save Data" style="text;html=1;strokeColor=none;fillColor=none;align=center;verticalAlign=middle;whiteSpace=wrap;rounded=0;" parent="WIyWlLk6GJQsqaUBKTNV-1" vertex="1">
          <mxGeometry x="95" y="653" width="70" height="30" as="geometry" />
        </mxCell>
        <mxCell id="APD8Mw8oB8hHSOioJClh-13" value="" style="rounded=0;html=1;jettySize=auto;orthogonalLoop=1;fontSize=11;endArrow=block;endFill=0;endSize=8;strokeWidth=2;shadow=0;labelBackgroundColor=none;edgeStyle=orthogonalEdgeStyle;fillColor=#a20025;strokeColor=#6F0000;" parent="WIyWlLk6GJQsqaUBKTNV-1" edge="1">
          <mxGeometry relative="1" as="geometry">
            <mxPoint x="280.0344827586207" y="343" as="sourcePoint" />
            <mxPoint x="280" y="393" as="targetPoint" />
            <Array as="points">
              <mxPoint x="280" y="373" />
              <mxPoint x="280" y="373" />
            </Array>
          </mxGeometry>
        </mxCell>
        <mxCell id="APD8Mw8oB8hHSOioJClh-14" value="GET&lt;br&gt;Data" style="text;html=1;strokeColor=none;fillColor=none;align=center;verticalAlign=middle;whiteSpace=wrap;rounded=0;" parent="WIyWlLk6GJQsqaUBKTNV-1" vertex="1">
          <mxGeometry x="280" y="353" width="50" height="20" as="geometry" />
        </mxCell>
        <mxCell id="APD8Mw8oB8hHSOioJClh-15" value="" style="rounded=0;html=1;jettySize=auto;orthogonalLoop=1;fontSize=11;endArrow=block;endFill=0;endSize=8;strokeWidth=2;shadow=0;labelBackgroundColor=none;edgeStyle=orthogonalEdgeStyle;entryX=0.75;entryY=0;entryDx=0;entryDy=0;exitX=0.75;exitY=1;exitDx=0;exitDy=0;fillColor=#a20025;strokeColor=#6F0000;" parent="WIyWlLk6GJQsqaUBKTNV-1" source="APD8Mw8oB8hHSOioJClh-1" target="APD8Mw8oB8hHSOioJClh-4" edge="1">
          <mxGeometry relative="1" as="geometry">
            <mxPoint x="270.0344827586207" y="433" as="sourcePoint" />
            <mxPoint x="270" y="493" as="targetPoint" />
            <Array as="points" />
          </mxGeometry>
        </mxCell>
        <mxCell id="APD8Mw8oB8hHSOioJClh-16" value="Retrieve from cache if present" style="text;html=1;strokeColor=none;fillColor=none;align=center;verticalAlign=middle;whiteSpace=wrap;rounded=0;" parent="WIyWlLk6GJQsqaUBKTNV-1" vertex="1">
          <mxGeometry x="290" y="453" width="90" height="30" as="geometry" />
        </mxCell>
        <mxCell id="APD8Mw8oB8hHSOioJClh-18" value="Retrieve from Database if absent in cache" style="text;html=1;strokeColor=none;fillColor=none;align=center;verticalAlign=middle;whiteSpace=wrap;rounded=0;" parent="WIyWlLk6GJQsqaUBKTNV-1" vertex="1">
          <mxGeometry x="400" y="513" width="90" height="66.25" as="geometry" />
        </mxCell>
      </root>
    </mxGraphModel>
  </diagram>
</mxfile>
